<svg width="160" height="160" viewBox="0 0 160 160" fill="none" xmlns="http://www.w3.org/2000/svg">
  <path d="M42 49H54L62 93H112L121 62H69" stroke="#163138" stroke-width="8" stroke-linecap="round" stroke-linejoin="round"/>
  <path d="M66 109C70.4183 109 74 105.418 74 101C74 96.5817 70.4183 93 66 93C61.5817 93 58 96.5817 58 101C58 105.418 61.5817 109 66 109Z" fill="#E76F51"/>
  <path d="M106 109C110.418 109 114 105.418 114 101C114 96.5817 110.418 93 106 93C101.582 93 98 96.5817 98 101C98 105.418 101.582 109 106 109Z" fill="#E76F51"/>
  <path d="M72 41C72 36.5817 75.5817 33 80 33C84.4183 33 88 36.5817 88 41V49H72V41Z" fill="#F4A261"/>
</svg>